<svg width="454" height="178" viewBox="0 0 454 178" fill="none" xmlns="http://www.w3.org/2000/svg">
<path d="M20.032 164.768C16.448 164.768 13.0133 164.299 9.728 163.36C6.44267 162.379 3.79733 161.12 1.792 159.584L5.312 151.776C7.232 153.141 9.49333 154.272 12.096 155.168C14.7413 156.021 17.408 156.448 20.096 156.448C22.144 156.448 23.7867 156.256 25.024 155.872C26.304 155.445 27.2427 154.869 27.84 154.144C28.4373 153.419 28.736 152.587 28.736 151.648C28.736 150.453 28.2667 149.515 27.328 148.832C26.3893 148.107 25.152 147.531 23.616 147.104C22.08 146.635 20.3733 146.208 18.496 145.824C16.6613 145.397 14.8053 144.885 12.928 144.288C11.0933 143.691 9.408 142.923 7.872 141.984C6.336 141.045 5.07733 139.808 4.096 138.272C3.15733 136.736 2.688 134.773 2.688 132.384C2.688 129.824 3.37067 127.499 4.736 125.408C6.144 123.275 8.23467 121.589 11.008 120.352C13.824 119.072 17.344 118.432 21.568 118.432C24.384 118.432 27.1573 118.773 29.888 119.456C32.6187 120.096 35.0293 121.077 37.12 122.4L33.92 130.272C31.8293 129.077 29.7387 128.203 27.648 127.648C25.5573 127.051 23.5093 126.752 21.504 126.752C19.4987 126.752 17.856 126.987 16.576 127.456C15.296 127.925 14.3787 128.544 13.824 129.312C13.2693 130.037 12.992 130.891 12.992 131.872C12.992 133.024 13.4613 133.963 14.4 134.688C15.3387 135.371 16.576 135.925 18.112 136.352C19.648 136.779 21.3333 137.205 23.168 137.632C25.0453 138.059 26.9013 138.549 28.736 139.104C30.6133 139.659 32.32 140.405 33.856 141.344C35.392 142.283 36.6293 143.52 37.568 145.056C38.5493 146.592 39.04 148.533 39.04 150.88C39.04 153.397 38.336 155.701 36.928 157.792C35.52 159.883 33.408 161.568 30.592 162.848C27.8187 164.128 24.2987 164.768 20.032 164.768ZM55.6605 137.248H77.2285V145.312H55.6605V137.248ZM56.4285 155.68H80.8125V164H46.1245V119.2H79.9805V127.52H56.4285V155.68ZM110.694 164.768C107.153 164.768 103.889 164.213 100.902 163.104C97.958 161.952 95.3767 160.331 93.158 158.24C90.982 156.149 89.2753 153.696 88.038 150.88C86.8433 148.064 86.246 144.971 86.246 141.6C86.246 138.229 86.8433 135.136 88.038 132.32C89.2753 129.504 91.0033 127.051 93.222 124.96C95.4407 122.869 98.0433 121.269 101.03 120.16C104.017 119.008 107.302 118.432 110.886 118.432C114.854 118.432 118.417 119.093 121.574 120.416C124.774 121.739 127.462 123.659 129.638 126.176L122.982 132.32C121.361 130.613 119.59 129.355 117.67 128.544C115.75 127.691 113.659 127.264 111.398 127.264C109.222 127.264 107.238 127.605 105.446 128.288C103.654 128.971 102.097 129.952 100.774 131.232C99.494 132.512 98.4913 134.027 97.766 135.776C97.0833 137.525 96.742 139.467 96.742 141.6C96.742 143.691 97.0833 145.611 97.766 147.36C98.4913 149.109 99.494 150.645 100.774 151.968C102.097 153.248 103.633 154.229 105.382 154.912C107.174 155.595 109.137 155.936 111.27 155.936C113.318 155.936 115.302 155.616 117.222 154.976C119.185 154.293 121.083 153.163 122.918 151.584L128.806 159.072C126.374 160.907 123.537 162.315 120.294 163.296C117.094 164.277 113.894 164.768 110.694 164.768ZM119.334 157.728V140.896H128.806V159.072L119.334 157.728ZM158.341 164.768C151.984 164.768 147.013 162.997 143.429 159.456C139.845 155.915 138.053 150.859 138.053 144.288V119.2H148.421V143.904C148.421 148.171 149.296 151.243 151.045 153.12C152.794 154.997 155.248 155.936 158.405 155.936C161.562 155.936 164.016 154.997 165.765 153.12C167.514 151.243 168.389 148.171 168.389 143.904V119.2H178.629V144.288C178.629 150.859 176.837 155.915 173.253 159.456C169.669 162.997 164.698 164.768 158.341 164.768ZM188.875 164V119.2H199.243V164H188.875ZM209.875 164V119.2H230.227C235.091 119.2 239.379 120.139 243.091 122.016C246.803 123.851 249.704 126.432 251.795 129.76C253.885 133.088 254.931 137.035 254.931 141.6C254.931 146.123 253.885 150.069 251.795 153.44C249.704 156.768 246.803 159.371 243.091 161.248C239.379 163.083 235.091 164 230.227 164H209.875ZM220.243 155.488H229.715C232.701 155.488 235.283 154.933 237.458 153.824C239.677 152.672 241.384 151.051 242.579 148.96C243.816 146.869 244.435 144.416 244.435 141.6C244.435 138.741 243.816 136.288 242.579 134.24C241.384 132.149 239.677 130.549 237.458 129.44C235.283 128.288 232.701 127.712 229.715 127.712H220.243V155.488ZM284.51 164.768C280.968 164.768 277.683 164.192 274.654 163.04C271.667 161.888 269.064 160.267 266.845 158.176C264.67 156.085 262.963 153.632 261.726 150.816C260.531 148 259.934 144.928 259.934 141.6C259.934 138.272 260.531 135.2 261.726 132.384C262.963 129.568 264.691 127.115 266.91 125.024C269.128 122.933 271.731 121.312 274.718 120.16C277.704 119.008 280.947 118.432 284.446 118.432C287.987 118.432 291.229 119.008 294.174 120.16C297.16 121.312 299.742 122.933 301.918 125.024C304.136 127.115 305.864 129.568 307.102 132.384C308.339 135.157 308.958 138.229 308.958 141.6C308.958 144.928 308.339 148.021 307.102 150.88C305.864 153.696 304.136 156.149 301.918 158.24C299.742 160.288 297.16 161.888 294.174 163.04C291.229 164.192 288.008 164.768 284.51 164.768ZM284.446 155.936C286.451 155.936 288.286 155.595 289.95 154.912C291.656 154.229 293.15 153.248 294.43 151.968C295.71 150.688 296.691 149.173 297.374 147.424C298.099 145.675 298.462 143.733 298.462 141.6C298.462 139.467 298.099 137.525 297.374 135.776C296.691 134.027 295.71 132.512 294.43 131.232C293.192 129.952 291.72 128.971 290.014 128.288C288.307 127.605 286.451 127.264 284.446 127.264C282.44 127.264 280.584 127.605 278.878 128.288C277.214 128.971 275.742 129.952 274.462 131.232C273.182 132.512 272.179 134.027 271.454 135.776C270.771 137.525 270.43 139.467 270.43 141.6C270.43 143.691 270.771 145.632 271.454 147.424C272.179 149.173 273.16 150.688 274.398 151.968C275.678 153.248 277.171 154.229 278.878 154.912C280.584 155.595 282.44 155.936 284.446 155.936ZM316.75 164V119.2H336.142C340.152 119.2 343.608 119.861 346.51 121.184C349.411 122.464 351.651 124.32 353.23 126.752C354.808 129.184 355.598 132.085 355.598 135.456C355.598 138.784 354.808 141.664 353.23 144.096C351.651 146.485 349.411 148.32 346.51 149.6C343.608 150.88 340.152 151.52 336.142 151.52H322.51L327.118 146.976V164H316.75ZM345.229 164L334.03 147.744H345.102L356.43 164H345.229ZM327.118 148.128L322.51 143.264H335.566C338.766 143.264 341.155 142.581 342.734 141.216C344.312 139.808 345.102 137.888 345.102 135.456C345.102 132.981 344.312 131.061 342.734 129.696C341.155 128.331 338.766 127.648 335.566 127.648H322.51L327.118 122.72V148.128ZM373.348 137.248H394.916V145.312H373.348V137.248ZM374.116 155.68H398.5V164H363.812V119.2H397.668V127.52H374.116V155.68ZM421.47 164.768C417.886 164.768 414.451 164.299 411.166 163.36C407.88 162.379 405.235 161.12 403.23 159.584L406.75 151.776C408.67 153.141 410.931 154.272 413.534 155.168C416.179 156.021 418.846 156.448 421.534 156.448C423.582 156.448 425.224 156.256 426.462 155.872C427.742 155.445 428.68 154.869 429.278 154.144C429.875 153.419 430.174 152.587 430.174 151.648C430.174 150.453 429.704 149.515 428.766 148.832C427.827 148.107 426.59 147.531 425.054 147.104C423.518 146.635 421.811 146.208 419.934 145.824C418.099 145.397 416.243 144.885 414.366 144.288C412.531 143.691 410.846 142.923 409.31 141.984C407.774 141.045 406.515 139.808 405.534 138.272C404.595 136.736 404.126 134.773 404.126 132.384C404.126 129.824 404.808 127.499 406.174 125.408C407.582 123.275 409.672 121.589 412.446 120.352C415.262 119.072 418.782 118.432 423.006 118.432C425.822 118.432 428.595 118.773 431.326 119.456C434.056 120.096 436.467 121.077 438.558 122.4L435.358 130.272C433.267 129.077 431.176 128.203 429.086 127.648C426.995 127.051 424.947 126.752 422.942 126.752C420.936 126.752 419.294 126.987 418.014 127.456C416.734 127.925 415.816 128.544 415.262 129.312C414.707 130.037 414.43 130.891 414.43 131.872C414.43 133.024 414.899 133.963 415.838 134.688C416.776 135.371 418.014 135.925 419.55 136.352C421.086 136.779 422.771 137.205 424.606 137.632C426.483 138.059 428.339 138.549 430.174 139.104C432.051 139.659 433.758 140.405 435.294 141.344C436.83 142.283 438.067 143.52 439.006 145.056C439.987 146.592 440.478 148.533 440.478 150.88C440.478 153.397 439.774 155.701 438.366 157.792C436.958 159.883 434.846 161.568 432.03 162.848C429.256 164.128 425.736 164.768 421.47 164.768Z" fill="#6F74DF"/>
<path d="M267.312 106V61.2H286.704C290.715 61.2 294.171 61.8613 297.072 63.184C299.973 64.464 302.213 66.32 303.792 68.752C305.371 71.184 306.16 74.0853 306.16 77.456C306.16 80.784 305.371 83.664 303.792 86.096C302.213 88.528 299.973 90.4053 297.072 91.728C294.171 93.008 290.715 93.648 286.704 93.648H273.072L277.68 88.976V106H267.312ZM277.68 90.128L273.072 85.2H286.128C289.328 85.2 291.717 84.5173 293.296 83.152C294.875 81.7867 295.664 79.888 295.664 77.456C295.664 74.9813 294.875 73.0613 293.296 71.696C291.717 70.3307 289.328 69.648 286.128 69.648H273.072L277.68 64.72V90.128ZM323.098 79.248H344.666V87.312H323.098V79.248ZM323.866 97.68H348.25V106H313.562V61.2H347.418V69.52H323.866V97.68ZM356.5 106V61.2H375.892C379.902 61.2 383.358 61.8613 386.26 63.184C389.161 64.464 391.401 66.32 392.98 68.752C394.558 71.184 395.348 74.0853 395.348 77.456C395.348 80.784 394.558 83.664 392.98 86.096C391.401 88.4853 389.161 90.32 386.26 91.6C383.358 92.88 379.902 93.52 375.892 93.52H362.26L366.868 88.976V106H356.5ZM384.979 106L373.78 89.744H384.852L396.18 106H384.979ZM366.868 90.128L362.26 85.264H375.316C378.516 85.264 380.905 84.5813 382.484 83.216C384.062 81.808 384.852 79.888 384.852 77.456C384.852 74.9813 384.062 73.0613 382.484 71.696C380.905 70.3307 378.516 69.648 375.316 69.648H362.26L366.868 64.72V90.128ZM423.466 106.768C417.109 106.768 412.138 104.997 408.554 101.456C404.97 97.9147 403.178 92.8587 403.178 86.288V61.2H413.546V85.904C413.546 90.1707 414.421 93.2427 416.17 95.12C417.919 96.9973 420.373 97.936 423.53 97.936C426.687 97.936 429.141 96.9973 430.89 95.12C432.639 93.2427 433.514 90.1707 433.514 85.904V61.2H443.754V86.288C443.754 92.8587 441.962 97.9147 438.378 101.456C434.794 104.997 429.823 106.768 423.466 106.768ZM417.706 57.552L426.346 48.336H437.098L425.514 57.552H417.706Z" fill="#7075DF"/>
<g filter="url(#filter0_d_4_5)">
<path fill-rule="evenodd" clip-rule="evenodd" d="M34 80.0367C45.4467 83.6701 58.9616 86.9605 73.7155 89.5381C102.201 94.5145 128.724 95.684 146.076 93.407C156.389 88.9104 163.361 84.2013 165.707 79.8606C163.279 75.4712 156.054 70.6901 145.378 66.1182C128.321 63.9579 102.752 65.0897 75.3555 69.8759C59.8272 72.5887 45.7074 76.127 34 80.0367Z" fill="#FED381"/>
</g>
<path fill-rule="evenodd" clip-rule="evenodd" d="M87.2089 79.9625C92.7383 82.096 99.2667 84.0281 106.394 85.5416C120.153 88.4636 132.965 89.1503 141.347 87.8133C146.329 85.173 149.697 82.4079 150.83 79.8591C149.657 77.2818 146.167 74.4744 141.01 71.7899C132.771 70.5214 120.42 71.186 107.186 73.9963C99.6848 75.5893 92.8642 77.6669 87.2089 79.9625Z" fill="white"/>
<ellipse cx="134.443" cy="79.8095" rx="8.63659" ry="18.0644" transform="rotate(90 134.443 79.8095)" fill="white"/>
<path fill-rule="evenodd" clip-rule="evenodd" d="M148.105 95.4014C149.441 90.6758 150.192 85.3478 150.192 79.7108C150.192 74.2136 149.478 69.0102 148.204 64.3728L138.481 64.3728C139.756 69.0102 140.47 74.2136 140.47 79.7108C140.47 85.3478 139.719 90.6758 138.383 95.4014L148.105 95.4014Z" fill="#242E22"/>
<path fill-rule="evenodd" clip-rule="evenodd" d="M149.723 63.5399L193.425 63.5399C193.43 63.3642 193.432 63.1878 193.432 63.0109C193.432 52.3466 184.787 43.7014 174.123 43.7014L138.082 43.7014C136.988 43.7014 135.915 43.7925 134.87 43.9673C140.793 48.9319 145.868 55.6259 149.723 63.5399Z" fill="url(#paint0_linear_4_5)"/>
<path fill-rule="evenodd" clip-rule="evenodd" d="M148.83 93.483H192.532C192.536 93.6588 192.539 93.8351 192.539 94.0121C192.539 104.676 183.894 113.322 173.229 113.322H137.189C136.094 113.322 135.021 113.23 133.977 113.056C139.9 108.091 144.974 101.397 148.83 93.483Z" fill="url(#paint1_linear_4_5)"/>
<path fill-rule="evenodd" clip-rule="evenodd" d="M191.748 59.7406C184.158 57.8067 175.466 56.4422 166.177 55.8687C159.038 55.428 152.169 55.4929 145.814 55.9921C147.517 58.5013 149.066 61.2118 150.443 64.0963L192.003 63.613C192.01 63.4453 192.014 63.2772 192.016 63.1086C192.029 61.957 191.937 60.8313 191.748 59.7406ZM164.84 103.047C157.056 103.629 149.609 103.624 142.811 103.115C145.218 99.9555 147.383 96.447 149.262 92.6508L190.822 92.1674C190.825 92.3349 190.825 92.503 190.823 92.6717C190.797 94.9423 190.362 97.1217 189.588 99.1386C182.168 101.011 173.769 102.379 164.84 103.047Z" fill="#421116"/>
<path fill-rule="evenodd" clip-rule="evenodd" d="M142.137 62.9737C144.108 69.4645 145.033 76.8218 144.627 84.5657C144.411 88.6742 143.834 92.6352 142.946 96.3819C152.859 100.691 169.084 102.9 187.208 101.754C209.092 100.37 227.558 94.4864 235.212 87.2695C237.852 85.2192 239.395 82.8804 239.584 80.3258C240.371 69.6611 217.256 59.2735 187.955 57.1245C168.885 55.7259 151.894 58.1619 142.137 62.9737Z" fill="url(#paint2_linear_4_5)"/>
<path fill-rule="evenodd" clip-rule="evenodd" d="M184.114 101.918C185.139 101.874 186.171 101.819 187.208 101.754C189.97 101.579 192.677 101.333 195.316 101.021C196.086 94.2403 196.503 86.9844 196.503 79.4421C196.503 71.895 196.086 64.6347 195.314 57.8502C192.914 57.5516 190.457 57.308 187.955 57.1246C186.662 57.0297 185.378 56.9525 184.106 56.8925C184.948 63.9498 185.407 71.5386 185.407 79.4421C185.407 87.318 184.952 94.8815 184.114 101.918ZM169.557 56.9626C173.098 56.7504 176.804 56.6819 180.629 56.7702C181.61 64.3152 182.147 72.5047 182.147 81.063C182.147 88.3745 181.755 95.4169 181.029 102.018C177.209 102.103 173.501 102.037 169.952 101.832C170.665 95.2847 171.05 88.3059 171.05 81.063C171.05 72.5774 170.522 64.4544 169.557 56.9626Z" fill="url(#paint3_radial_4_5)"/>
<ellipse cx="178.487" cy="80.213" rx="4.16802" ry="13.9802" transform="rotate(90 178.487 80.213)" fill="url(#paint4_linear_4_5)"/>
<path d="M178.554 84.381C173.02 84.381 167.54 84.2732 162.427 84.0638C157.314 83.8543 152.668 83.5473 148.754 83.1603C144.841 82.7732 141.737 82.3137 139.619 81.8081C137.501 81.3024 136.411 80.7604 136.411 80.213C136.411 79.6657 137.501 79.1237 139.619 78.618C141.737 78.1123 144.841 77.6528 148.754 77.2658C152.668 76.8788 157.314 76.5717 162.427 76.3623C167.54 76.1528 173.02 76.045 178.554 76.045L178.554 80.213L178.554 84.381Z" fill="url(#paint5_linear_4_5)"/>
<g filter="url(#filter1_d_4_5)">
<circle cx="218.965" cy="79.424" r="11.8094" transform="rotate(90 218.965 79.424)" fill="#C4C4C4"/>
<g filter="url(#filter2_i_4_5)">
<circle cx="218.965" cy="79.424" r="6.25203" transform="rotate(90 218.965 79.424)" fill="#6CCAD7"/>
</g>
</g>
<defs>
<filter id="filter0_d_4_5" x="34" y="65.0675" width="147.707" height="46.4551" filterUnits="userSpaceOnUse" color-interpolation-filters="sRGB">
<feFlood flood-opacity="0" result="BackgroundImageFix"/>
<feColorMatrix in="SourceAlpha" type="matrix" values="0 0 0 0 0 0 0 0 0 0 0 0 0 0 0 0 0 0 127 0" result="hardAlpha"/>
<feOffset dx="16" dy="17"/>
<feComposite in2="hardAlpha" operator="out"/>
<feColorMatrix type="matrix" values="0 0 0 0 0 0 0 0 0 0 0 0 0 0 0 0 0 0 0.39 0"/>
<feBlend mode="normal" in2="BackgroundImageFix" result="effect1_dropShadow_4_5"/>
<feBlend mode="normal" in="SourceGraphic" in2="effect1_dropShadow_4_5" result="shape"/>
</filter>
<filter id="filter1_d_4_5" x="203.155" y="67.6146" width="31.6188" height="31.6188" filterUnits="userSpaceOnUse" color-interpolation-filters="sRGB">
<feFlood flood-opacity="0" result="BackgroundImageFix"/>
<feColorMatrix in="SourceAlpha" type="matrix" values="0 0 0 0 0 0 0 0 0 0 0 0 0 0 0 0 0 0 127 0" result="hardAlpha"/>
<feOffset dy="4"/>
<feGaussianBlur stdDeviation="2"/>
<feComposite in2="hardAlpha" operator="out"/>
<feColorMatrix type="matrix" values="0 0 0 0 0 0 0 0 0 0 0 0 0 0 0 0 0 0 0.25 0"/>
<feBlend mode="normal" in2="BackgroundImageFix" result="effect1_dropShadow_4_5"/>
<feBlend mode="normal" in="SourceGraphic" in2="effect1_dropShadow_4_5" result="shape"/>
</filter>
<filter id="filter2_i_4_5" x="212.713" y="73.172" width="12.5041" height="16.5041" filterUnits="userSpaceOnUse" color-interpolation-filters="sRGB">
<feFlood flood-opacity="0" result="BackgroundImageFix"/>
<feBlend mode="normal" in="SourceGraphic" in2="BackgroundImageFix" result="shape"/>
<feColorMatrix in="SourceAlpha" type="matrix" values="0 0 0 0 0 0 0 0 0 0 0 0 0 0 0 0 0 0 127 0" result="hardAlpha"/>
<feOffset dy="4"/>
<feGaussianBlur stdDeviation="2"/>
<feComposite in2="hardAlpha" operator="arithmetic" k2="-1" k3="1"/>
<feColorMatrix type="matrix" values="0 0 0 0 0 0 0 0 0 0 0 0 0 0 0 0 0 0 0.25 0"/>
<feBlend mode="normal" in2="shape" result="effect1_innerShadow_4_5"/>
</filter>
<linearGradient id="paint0_linear_4_5" x1="164.151" y1="43.7014" x2="164.151" y2="63.5399" gradientUnits="userSpaceOnUse">
<stop stop-color="#BC1C2B"/>
<stop offset="1" stop-color="#931420"/>
</linearGradient>
<linearGradient id="paint1_linear_4_5" x1="163.258" y1="113.322" x2="160.265" y2="99.8192" gradientUnits="userSpaceOnUse">
<stop stop-color="#BC1B2A"/>
<stop offset="1" stop-color="#931420"/>
</linearGradient>
<linearGradient id="paint2_linear_4_5" x1="221.628" y1="64.8541" x2="178.558" y2="98.7772" gradientUnits="userSpaceOnUse">
<stop stop-color="#DA3329"/>
<stop offset="0.5125" stop-color="#BA1E26"/>
<stop offset="1" stop-color="#A01C23"/>
</linearGradient>
<radialGradient id="paint3_radial_4_5" cx="0" cy="0" r="1" gradientUnits="userSpaceOnUse" gradientTransform="translate(182.102 79.3623) rotate(120.829) scale(25.441 24.9219)">
<stop stop-color="white"/>
<stop offset="0.408333" stop-color="white"/>
<stop offset="0.647916" stop-color="white"/>
<stop offset="1" stop-color="#E3E3E3"/>
</radialGradient>
<linearGradient id="paint4_linear_4_5" x1="166.815" y1="76.1406" x2="169.268" y2="88.2482" gradientUnits="userSpaceOnUse">
<stop stop-color="#D84444"/>
<stop offset="1" stop-color="#960202"/>
</linearGradient>
<linearGradient id="paint5_linear_4_5" x1="190.831" y1="68.5408" x2="163.16" y2="85.4445" gradientUnits="userSpaceOnUse">
<stop stop-color="#D84444"/>
<stop offset="1" stop-color="#960202"/>
</linearGradient>
</defs>
</svg>
